<?xml version="1.0" encoding="UTF-8"?><svg id="Base" xmlns="http://www.w3.org/2000/svg" xmlns:xlink="http://www.w3.org/1999/xlink" viewBox="0 0 283.46 340.16"><defs><style>.cls-1{fill:#f47d20;}.cls-2{fill:url(#linear-gradient-2);}.cls-3{fill:#ffc20e;}.cls-4{fill:#fff;}.cls-5{fill:url(#linear-gradient-6);}.cls-6{fill:#02205f;}.cls-7{fill:url(#linear-gradient-5);}.cls-8{fill:url(#linear-gradient-3);}.cls-9{fill:url(#linear-gradient);}.cls-10{fill:#e11b22;}.cls-11{fill:url(#linear-gradient-4);}</style><linearGradient id="linear-gradient" x1="112.83" y1="189.41" x2="112.83" y2="58.91" gradientUnits="userSpaceOnUse"><stop offset="0" stop-color="#008bb3"/><stop offset=".01" stop-color="#1094bb"/><stop offset=".05" stop-color="#47b5d5"/><stop offset=".08" stop-color="#6ecde8"/><stop offset=".1" stop-color="#87dbf4"/><stop offset=".12" stop-color="#90e1f9"/><stop offset=".2" stop-color="#68d6f7"/><stop offset=".29" stop-color="#41ccf5"/><stop offset=".36" stop-color="#28c6f4"/><stop offset=".4" stop-color="#20c4f4"/><stop offset=".6" stop-color="#20c4f4"/><stop offset=".64" stop-color="#28c6f4"/><stop offset=".71" stop-color="#41ccf5"/><stop offset=".8" stop-color="#68d6f7"/><stop offset=".88" stop-color="#90e1f9"/><stop offset=".9" stop-color="#87dbf4"/><stop offset=".92" stop-color="#6ecde8"/><stop offset=".95" stop-color="#47b5d5"/><stop offset=".99" stop-color="#1094bb"/><stop offset="1" stop-color="#008bb3"/></linearGradient><linearGradient id="linear-gradient-2" x1="144.2" y1="189.13" x2="144.2" y2="58.73" xlink:href="#linear-gradient"/><linearGradient id="linear-gradient-3" x1="85.21" y1="189.69" x2="85.21" y2="59.1" xlink:href="#linear-gradient"/><linearGradient id="linear-gradient-4" x1="166.43" y1="119.13" x2="204.48" y2="103.37" gradientUnits="userSpaceOnUse"><stop offset=".2" stop-color="#20c4f4"/><stop offset=".28" stop-color="#28c6f4"/><stop offset=".4" stop-color="#41ccf5"/><stop offset=".56" stop-color="#68d6f7"/><stop offset=".69" stop-color="#90e1f9"/><stop offset=".73" stop-color="#87dbf4"/><stop offset=".8" stop-color="#6ecde8"/><stop offset=".88" stop-color="#47b5d5"/><stop offset=".97" stop-color="#1094bb"/><stop offset="1" stop-color="#008bb3"/></linearGradient><linearGradient id="linear-gradient-5" x1="158.14" y1="152.29" x2="214.92" y2="128.77" gradientUnits="userSpaceOnUse"><stop offset=".3" stop-color="#20c4f4"/><stop offset=".37" stop-color="#28c6f4"/><stop offset=".49" stop-color="#41ccf5"/><stop offset=".63" stop-color="#68d6f7"/><stop offset=".76" stop-color="#90e1f9"/><stop offset=".79" stop-color="#87dbf4"/><stop offset=".84" stop-color="#6ecde8"/><stop offset=".91" stop-color="#47b5d5"/><stop offset=".98" stop-color="#1094bb"/><stop offset="1" stop-color="#008bb3"/></linearGradient><linearGradient id="linear-gradient-6" x1="149.71" y1="185.59" x2="225.08" y2="154.37" gradientUnits="userSpaceOnUse"><stop offset="0" stop-color="#47cef6"/><stop offset=".04" stop-color="#3ecbf5"/><stop offset=".14" stop-color="#2dc7f4"/><stop offset=".26" stop-color="#23c4f4"/><stop offset=".4" stop-color="#20c4f4"/><stop offset=".46" stop-color="#28c6f4"/><stop offset=".57" stop-color="#41ccf5"/><stop offset=".7" stop-color="#68d6f7"/><stop offset=".81" stop-color="#90e1f9"/><stop offset=".83" stop-color="#87dbf4"/><stop offset=".87" stop-color="#6ecde8"/><stop offset=".93" stop-color="#47b5d5"/><stop offset=".98" stop-color="#1094bb"/><stop offset="1" stop-color="#008bb3"/></linearGradient></defs><g id="Base-2"><path class="cls-3" d="M11.34-.09H272.13c6.26,0,11.34,5.08,11.34,11.34V328.73c0,6.26-5.08,11.34-11.34,11.34H11.34c-6.26,0-11.34-5.08-11.34-11.34V11.25C0,4.99,5.08-.09,11.34-.09Z"/><path class="cls-1" d="M21.26,13.23h240.94c4.22,0,7.65,3.43,7.65,7.65V319.09c0,4.22-3.43,7.65-7.65,7.65H21.26c-4.22,0-7.65-3.43-7.65-7.65V20.89c0-4.22,3.43-7.65,7.65-7.65Z"/><path class="cls-10" d="M29.34,23.01H254.13c3.13,0,5.67,2.54,5.67,5.67V311.29c0,3.13-2.54,5.67-5.67,5.67H29.34c-3.13,0-5.67-2.54-5.67-5.67V28.68c0-3.13,2.54-5.67,5.67-5.67Z"/><rect class="cls-6" x="31.75" y="30.81" width="219.97" height="278.36" rx="4.25" ry="4.25"/><path class="cls-4" d="M90.24,263.99c-.64-2.73-1.87-7.61-2.47-9.61h-18.81c-.62,2.02-1.83,6.89-2.47,9.61h-16.88c7.16-22.62,10.43-32.14,18.42-52.19h20.67c8,20.06,11.27,29.58,18.42,52.19h-16.88Zm-18.92-20.87h14.08c-1.98-6.99-5.72-18.6-7.04-21.92-1.32,3.32-5.06,14.93-7.04,21.92Z"/><path class="cls-4" d="M125.67,263.99c-8.77,0-13.61-5-13.61-14.09v-38.1h15.79v35.08c0,4.39,1.21,5.53,5.86,5.53h15.33l2.34,11.58h-25.72Z"/><rect class="cls-4" x="215.24" y="211.8" width="15.78" height="52.19"/><path class="cls-4" d="M157.68,263.99v-52.19h21.82c16.04,0,27.26,6.54,27.26,25.68s-8.97,26.51-26.56,26.51h-22.51Zm15.79-11.28h4.45c9.67,0,13.52-4.32,13.52-15.23,0-10.25-4.68-14.39-14.08-14.39h-3.9v29.62Z"/><path class="cls-9" d="M135.66,58.91c-9.78,0-13.72,6.73-17.39,17.51l-33.35,98.18c-2.86,8.43-6.49,13.55-12.56,14.27v.54c2.82,0,16.73,0,17.31,0,9.78,0,13.72-6.73,17.39-17.5l33.35-98.18c2.86-8.43,6.82-13.53,12.9-14.27v-.54h-17.64Z"/><path class="cls-2" d="M167.01,58.73c-9.78,0-13.72,6.73-17.39,17.5l-33.33,98.08c-2.86,8.43-6.49,13.54-12.56,14.27v.54c2.82,0,16.72,0,17.31,0,9.78,0,13.72-6.73,17.39-17.5l33.33-98.08c2.86-8.43,6.82-13.53,12.9-14.27v-.54c-2.82,0-17.06,0-17.64,0Z"/><path class="cls-8" d="M104.32,59.1c-9.78,0-13.72,6.73-17.39,17.51l-38.46,113.08c2.82,0,9.22,0,9.8,0,9.78,0,13.72-6.73,17.39-17.5l33.38-98.27c2.86-8.43,6.82-13.54,12.9-14.27v-.54h-17.63Z"/><path class="cls-11" d="M203.98,104.62c-3.63-7.4-7.54-8.34-14.37-8.34h-17.39l-6.87,20.23h34.12c4.91,0,8.88,.64,11.64,4.31h.61s-6.85-14.42-7.73-16.2Z"/><path class="cls-7" d="M216.37,133.81c-3.41-7.15-7.51-8.32-14.38-8.32h-39.7l-6.87,20.23h56.14c5.05,0,8.79,.74,11.62,4.45h.61s-6.56-14.56-7.42-16.36Z"/><path class="cls-5" d="M229.07,164.03c-3.56-7.97-7.98-9.16-14.84-9.16h-61.91l-5.69,16.76c-.41,1.21-.83,2.37-1.25,3.47h78.36c4.57,0,8.33,.81,11.23,4.58h.61s-6.09-14.74-6.49-15.65Z"/></g></svg>